HIERARCHY
ROOT Hips
{
    OFFSET 0.000000 0.000000 0.000000
    CHANNELS 6 Xposition Yposition Zposition Zrotation Xrotation Yrotation
        JOINT Chest
        {
            OFFSET -0.000000 31.935503 -0.000000
            CHANNELS 3 Zrotation Xrotation Yrotation
            JOINT Neck
            {
                OFFSET -0.000000 23.713140 0.000000
                CHANNELS 3 Zrotation Xrotation Yrotation
                JOINT Head
                {
                    OFFSET -0.000000 10.938888 0.000000
                    CHANNELS 3 Zrotation Xrotation Yrotation
                    End Site
                    {
                        OFFSET -0.000000 16.905556 0.000000
                    }
                }
            }
            JOINT LeftCollar
            {
                OFFSET -0.000000 23.713140 0.000000
                CHANNELS 3 Zrotation Xrotation Yrotation
                JOINT LeftShoulder
                {
                    OFFSET 19.888887 -0.000000 0.000000
                    CHANNELS 3 Zrotation Xrotation Yrotation
                    JOINT LeftElbow
                    {
                        OFFSET 23.906332 0.000000 0.000000
                        CHANNELS 3 Zrotation Xrotation Yrotation
                        JOINT LeftWrist
                        {
                            OFFSET 25.116924 0.000000 0.000000
                            CHANNELS 3 Zrotation Xrotation Yrotation
                            End Site
                            {
                                OFFSET 0.000000 -14.916667 0.000000
                            }
                        }
                    }
                }
            }
            JOINT RightCollar
            {
                OFFSET -0.000000 23.713140 0.000000
                CHANNELS 3 Zrotation Xrotation Yrotation
                JOINT RightShoulder
                {
                    OFFSET -19.888887 0.000000 0.000000
                    CHANNELS 3 Zrotation Xrotation Yrotation
                    JOINT RightElbow
                    {
                        OFFSET -23.906332 0.000000 0.000000
                        CHANNELS 3 Zrotation Xrotation Yrotation
                        JOINT RightWrist
                        {
                            OFFSET -25.116924 0.000000 0.000000
                            CHANNELS 3 Zrotation Xrotation Yrotation
                            End Site
                            {
                                OFFSET -0.000000 -14.916667 0.000000
                            }
                        }
                    }
                }
            }
        }
    JOINT LeftHip
    {
        OFFSET 11.933332 0.000000 0.000000
        CHANNELS 3 Zrotation Xrotation Yrotation
        JOINT LeftKnee
        {
            OFFSET -0.000000 -35.996647 0.000000
            CHANNELS 3 Zrotation Xrotation Yrotation
            JOINT LeftAnkle
            {
                OFFSET -0.000000 -39.788193 0.000000
                CHANNELS 3 Zrotation Xrotation Yrotation
                End Site
                {
                    OFFSET -0.000000 -4.972222 16.905556
                }
            }
        }
    }
    JOINT RightHip
    {
        OFFSET -11.933332 0.000000 0.000000
        CHANNELS 3 Zrotation Xrotation Yrotation
        JOINT RightKnee
        {
            OFFSET -0.000000 -35.996647 0.000000
            CHANNELS 3 Zrotation Xrotation Yrotation
            JOINT RightAnkle
            {
                OFFSET -0.000000 -39.788193 0.000000
                CHANNELS 3 Zrotation Xrotation Yrotation
                End Site
                {
                    OFFSET -0.000000 -4.972222 16.905556
                }
            }
        }
    }
}
MOTION
Frames:    5
Frame Time:    0.010000
-25.870625    88.510109    -8.307043    -7.341434    4.332957    -20.457457    -7.322605    7.049736    39.572842    -2.082786    5.407983    -18.882002    8.753433    -22.737730    -17.202044    -15.365688    1.095060    -7.878192    -57.013512    32.331432    12.827586    26.920105    -18.579979    -69.564430    91.163666    38.845131    103.577774    12.596515    -0.651666    -6.334824    -29.165562    37.066715    117.568161    -9.263822    -2.794087    33.532181    -81.550354    -3.839873    -13.696415    5.047949    -17.987322    -2.294210    5.841028    20.149235    -35.680584    0.391854    -5.503001    15.996843    -4.971449    8.775410    -11.028799    2.869738    24.079733    -26.956884    2.384844    16.500172    1.126983    
-25.620359    88.486145    -8.475766    -7.361100    4.233654    -21.349586    -7.030945    7.127090    38.636547    -1.742594    5.312679    -18.331036    8.298584    -23.026585    -16.703560    -15.521629    1.082146    -7.954558    -56.883003    33.254578    12.174958    26.374067    -18.084524    -69.240906    91.463364    39.779453    103.279564    12.512282    -0.704945    -6.790444    -29.255669    37.819401    117.398460    -9.072880    -2.725670    33.609680    -82.691856    -3.413011    -13.071587    5.159595    -17.787275    -2.102763    5.650067    20.068354    -34.968925    0.303451    -5.449023    15.955550    -5.202152    8.760270    -10.903763    2.877410    23.896786    -26.759174    2.503596    15.922331    0.882576    
-25.367250    88.466927    -8.654726    -7.377630    4.169809    -22.290640    -6.734503    7.140959    37.693077    -1.422163    5.269384    -17.752611    7.864841    -23.313648    -16.177742    -15.660247    1.121544    -8.000028    -56.728401    34.088860    11.412910    25.766909    -17.494572    -68.808022    91.877312    40.664204    102.481255    12.449503    -0.741781    -7.254529    -29.213943    38.641975    117.070831    -8.807217    -2.623946    33.767246    -84.018112    -3.048572    -12.141996    5.293482    -17.612095    -1.910287    5.452110    19.982714    -34.221706    0.372773    -5.340112    15.924570    -5.418594    8.716257    -10.806765    2.882169    23.677994    -26.523724    2.700311    15.289569    0.570697    
-25.109819    88.452179    -8.845785    -7.384691    4.144874    -23.277073    -6.434994    7.093819    36.745064    -1.120519    5.256920    -17.149698    7.436025    -23.582230    -15.631250    -15.782760    1.138772    -8.012504    -56.536797    34.909893    10.557332    25.184803    -16.934502    -68.302773    92.364693    41.452175    101.300606    12.392538    -0.797388    -7.721900    -29.094032    39.531094    116.653206    -8.559659    -2.553373    33.926525    -85.452332    -2.806471    -10.991755    5.444170    -17.470112    -1.726540    5.248107    19.895748    -33.438026    0.578030    -5.184608    15.906149    -5.622646    8.637362    -10.746349    2.885348    23.424191    -26.260357    2.924260    14.591281    0.234653    
-24.847366    88.441376    -9.049172    -7.377427    4.156913    -24.305737    -6.134926    6.993784    35.796436    -0.833047    5.255361    -16.523983    6.994009    -23.820452    -15.069368    -15.884929    1.124884    -7.994906    -56.330681    35.702480    9.633478    24.597315    -16.350639    -67.707985    92.980507    42.083088    99.794067    12.332734    -0.852198    -8.185019    -28.935326    40.447594    116.164490    -8.298056    -2.480897    34.148750    -86.979744    -2.658442    -9.834645    5.606255    -17.362122    -1.557694    5.039467    19.808304    -32.620033    0.865131    -5.000735    15.906004    -5.817410    8.525167    -10.729258    2.890806    23.134663    -25.983137    3.104278    13.817338    -0.067758    
